# xmcd CD database file
#
# Track frame offsets:
#	150
#	17268
#	36985
#	53073
#	71478
#	88490
#	105025
#	124850
#	144210
#	168180
#	182903
#	202623
#	220548
#	239193
#	260095
#
# Disc length: 3696 seconds
#
# Revision: 0
# Processed by: cddbd v1.5.1PL0 Copyright (c) Steve Scherf et al.
# Submitted via: CDex 1.51
#
DISCID=c90e6e0f
DTITLE=Various Artist - SUPER HERO CHRONICLE メタルヒーロー 主題歌・挿入歌 大全集?(DISC2)
DYEAR=2004
DGENRE=Anime
TTITLE0=特捜ウインスペクター
TTITLE1=夢もひとつの仲間たち
TTITLE2=太陽の勇者ファイヤー
TTITLE3=ヒーローはやってくる
TTITLE4=燃やせ瞳を！
TTITLE5=激走！レスキューマン
TTITLE6=君が幸せなら
TTITLE7=ファイヤーハリケーン
TTITLE8=この命 永遠に
TTITLE9=愛する大地、愛する海よ
TTITLE10=ジャスト・ギガストリーマー
TTITLE11=炎は未来へ
TTITLE12=レッツゴー！ファイヤースコード
TTITLE13=勇者ウインスペクター
TTITLE14=今日のおれから明日の君へ
EXTD=YEAR: 2004
EXTT0=
EXTT1=
EXTT2=
EXTT3=
EXTT4=
EXTT5=
EXTT6=
EXTT7=
EXTT8=
EXTT9=
EXTT10=
EXTT11=
EXTT12=
EXTT13=
EXTT14=
PLAYORDER=
